<?xml version="1.0" encoding="utf-8"?>
<!-- Generator: Adobe Illustrator 27.2.0, SVG Export Plug-In . SVG Version: 6.00 Build 0)  -->
<svg version="1.1" id="Layer_1" xmlns="http://www.w3.org/2000/svg" xmlns:xlink="http://www.w3.org/1999/xlink" x="0px" y="0px"
	 viewBox="0 0 357 350" style="enable-background:new 0 0 357 350;" xml:space="preserve">
<style type="text/css">
	.st0{fill:#FFFFFF;}
</style>
<g>
	<path class="st0" d="M294.4,79.8h-7.1v25c0.3,0,7.5-0.2,7.5-0.2c2,0,4.5-1.1,5-3.1c0.6-1.6,1.3-5.5,1.3-8.3c0-3.3-0.6-7.3-1-8.6
		C299.3,82,297.1,79.8,294.4,79.8L294.4,79.8z"/>
	<path class="st0" d="M3.8,0.6v217.6h175.5v19.5H3.8v14.7h175.5v19.5H3.8v14.7h175.5v19.5H3.8V350h349.4V0.6L3.8,0.6z M102.7,146.2
		c0,23.5-13.8,36.1-35.3,36.1s-36.2-11.1-36.2-36.5V50.6h29.1v95.4c0,5.7,2.3,8.3,6.6,8.3c4.3,0,6.5-2.8,6.5-8.2V50.7h29.3
		L102.7,146.2L102.7,146.2z M142.1,182.6c-21.3,0-33.3-10-34.6-27.1c-0.4-5.4-0.3-11.6-0.3-13.5H135c0,1.5,0.1,5.1,0.4,8.8
		c0.3,3.7,2.6,5.5,6.5,5.5c4.2,0,6.1-3.1,6.1-8.2c0-7-2.6-10.6-11.1-17.5c-1.7-1.3-8.9-7.3-12.4-10.1c-11-8.8-17.4-16.5-17.4-36.5
		c0-21.7,13.4-34.9,34.9-34.9s31.7,13.5,33.6,29.5c0.6,3.7,0.7,10.9,0.7,12.9h-28c0-1.5-0.1-8.6-0.3-9.1c-0.4-3.6-2.2-5.7-6.1-5.7
		s-6.5,2.3-6.5,6.8c0,7.5,4.3,10.8,11.5,17c2.6,2.1,10.4,8.8,12.4,10.4c11,9.3,17.6,17.3,17.6,35.4
		C177,169.4,164.9,182.6,142.1,182.6L142.1,182.6z M246.4,168.7c-4.8,7.8-11.7,12.1-24.4,12.1h-40V50.6h36.6
		c13.7,0,22.2,3.4,27.7,11.1c4.9,6.8,6.6,22.7,6.6,51.2C253,146.6,252.3,159.6,246.4,168.7L246.4,168.7z M303.5,180.8l-10.7-49.6
		h-5.9v49.6h-28.4V50.6H302c10,0,17.7,3.7,22.1,10.8c4,6.2,6.4,15.8,6.4,28.6c0,10.4-1.3,17.5-3.2,22.5c-2.3,5.9-5.2,9.1-8.2,10.6
		l14.6,57.8L303.5,180.8L303.5,180.8z"/>
	<path class="st0" d="M217.5,77.6H211V156h7.1c3,0,5.3-2.4,5.8-5.9c1-8.5,1.2-14,1.2-37.4c0-5.2-0.3-21-1.3-29
		C223.3,80.3,221.3,77.6,217.5,77.6z"/>
</g>
</svg>
