<?xml version="1.0" encoding="UTF-8"?><svg id="Layer_1" xmlns="http://www.w3.org/2000/svg" viewBox="0 0 829.00006 259.36002"><defs><style>.cls-1{fill:#fff;}</style></defs><path class="cls-1" d="m254.17001,122.55002h-42.12V1.22002h38.62c14.44,0,23.41,3.19,29.19,10.34,5.17001,6.39,6.98999,21.13,6.98999,47.74001,0,31.32001-.76001,43.48-6.98999,52-5.01999,7.3-12.31,11.25-25.70001,11.25h.01001Zm3.19-63.4c0-4.87-.29999-19.61-1.37-27.06-.45999-3.19-2.57999-5.78-6.54001-5.78h-6.84v73.13h7.45001c3.19,0,5.63-2.28,6.07999-5.47,1.06-7.91,1.22-13.08,1.22-34.82Z"/><path class="cls-1" d="m295.06,122.55002V1.22002h31.78v121.33h-31.78Z"/><path class="cls-1" d="m390.70001,122.55002l-1.51999-5.02c-3.79999,3.8-11.39999,6.23-19.45999,6.23-17.32999,0-29.19-7.45-32.23001-23.72-1.37-7.14999-2.59-19.92-2.59-37.55,0-12.16.14999-29.19,3.04001-39.38,3.04001-10.19,12.32001-23.11,36.79001-23.11s33.75,11.86,36.34,24.33c.76001,3.34,1.37,19.31,1.37,20.98h-30.26001c0-1.82-.29999-8.97-1.06-13.68-.45999-3.04-2.59-5.32-5.92999-5.32-3.64999,0-5.92999,1.98-6.54001,5.78-1.22,8.36-1.51999,14.44-1.51999,30.26,0,9.57999.76001,24.32999,1.51999,28.74.91,5.63,3.34,8.21001,7.75,8.21001,4.87,0,7.29999-3.19,7.29999-8.81999v-13.84h-10.03v-25.39h39.53v42.88c0,13.99001.29999,28.43001.29999,28.43001h-22.81l.01001-.01001Z"/><path class="cls-1" d="m421.70999,122.55002V1.22002h31.78v121.33h-31.78Z"/><path class="cls-1" d="m510.79999,29.35002v93.2h-31.32001V29.35002h-19.46002V1.22002h70.40002v28.13h-19.62Z"/><path class="cls-1" d="m556.85999,122.55002h-30.85999L546.67999,1.22002h44.23999l18.84998,121.33h-31.32001l-3.79999-29.95h-13.67999l-4.10999,29.95Zm12.46997-71.92c-1.21997-7.45-1.52002-15.66-1.52002-15.66,0,0-.15002,8.06-1.37,15.66-.46002,3.04-3.03998,19.46001-3.03998,19.46001h8.66998s-2.28003-16.57-2.73999-19.46001Z"/><path class="cls-1" d="m615.70001,122.55002V1.22002h31.62v93.50999h34.35999v27.82001h-65.98999.01001Z"/><path class="cls-1" d="m284.57999,193.98001c-2.42999,5.47-5.47,8.51001-8.67001,9.88l15.35999,53.82001h-31.78l-11.25-46.22h-6.23001v46.22h-29.95001v-121.33h45.91998c10.48999,0,18.70001,3.5,23.26001,10.03,4.26001,5.78,6.69,14.75,6.69,26.61,0,9.73-1.37,16.27-3.34,20.98001l-.00995.00998Zm-28.57999-26c-.91-2.42999-3.19-4.41-6.07999-4.41h-7.45001v23.25999c.29999,0,7.91-.14999,7.91-.14999,2.13,0,4.70999-1.06,5.32001-2.89.60999-1.52,1.37-5.17,1.37-7.75,0-3.03999-.60999-6.84-1.06-8.06h-.01001Z"/><path class="cls-1" d="m295.51999,257.69003v-121.33h64.62v28.13h-33.91v18.85001h31.92999v26.61h-31.92999v20.22h34.20999v27.51999h-64.92001.00003Z"/><path class="cls-1" d="m400.88,259.36002c-22.5,0-35.12-9.26999-36.48999-25.23999-.45999-5.01999-.29999-10.79999-.29999-12.62h29.34c0,1.37.14999,4.70999.45999,8.20999.29999,3.5,2.73999,5.17001,6.84,5.17001,4.41,0,6.39001-2.89001,6.39001-7.60001,0-6.54001-2.73999-9.88-11.70999-16.26999-1.82001-1.22-9.42999-6.84-13.07999-9.42999-11.56-8.20999-18.39999-15.36-18.39999-34.06,0-20.22,14.14001-32.54001,36.79001-32.54001s33.45001,12.62,35.42999,27.52c.60999,3.5.76001,10.19.76001,12.00999h-29.5c0-1.37-.14999-8.06-.29999-8.50999-.45999-3.34-2.28-5.32001-6.39001-5.32001s-6.84,2.13-6.84,6.39c0,6.99001,4.56,10.03,12.16,15.81,2.73999,1.98,10.95001,8.21001,13.07999,9.73,11.56,8.67,18.54999,16.12001,18.54999,32.99001,0,21.44-12.76999,33.75-36.79001,33.75l-.00003.00998Z"/><path class="cls-1" d="m511.56,205.38004c-5.32001,5.78-13.22998,8.51001-23.71997,8.97-3.34003.29999-13.67999.14999-13.67999.14999v43.17999h-31.17001v-121.33h45.16c10.64001,0,18.40002,2.89,23.71997,9.12,5.02002,5.92999,7.75,15.66,7.75,29.95s-2.58002,23.87-8.06,29.95001v.01001Zm-24.02002-36.64c-.76001-2.74001-2.28003-4.71001-5.46997-4.71001h-8.06v25.39h7.45001c4.40997,0,5.78003-1.37,6.53998-5.17.46002-2.42999.46002-4.25999.46002-7.3s-.29999-5.63-.90997-8.21001l-.01007.00002Z"/><path class="cls-1" d="m600.34998,161.29002c1.06,5.32001,1.97998,15.2,1.97998,34.36,0,16.42001-.46002,29.04001-2.89001,38.62-4.71002,18.23999-15.65997,25.09-36.78998,25.09-22.34998,0-32.84003-8.35999-36.95001-25.39001-2.42999-9.57999-2.42999-22.20001-2.42999-37.25,0-17.17999.46002-26.91,1.83002-33.60001,3.5-15.97,12.46997-27.98,37.54999-27.98,22.96002,0,34.82001,10.8,37.71002,26.14999l-.01001.00003Zm-30.71002,65.23c1.06-6.54001,1.52002-14.89999,1.52002-29.34,0-8.06-.15002-24.17-1.06-28.58-.90997-4.56-2.59003-6.84-7.15002-6.84s-6.22998,2.42999-7.15002,6.99001c-.76001,4.11-1.21997,20.22-1.21997,28.42999,0,14.75.60999,23.87,1.52002,29.5.60999,3.5,2.59003,6.39001,6.84003,6.39001,3.95001,0,6.08002-3.19,6.69-6.54001l.00995-.01001Z"/><path class="cls-1" d="m653.85999,257.69003l-17.17999-47.13v47.13h-28.73999v-121.33h26l17.17999,48.03999v-48.04001h29.03998v121.33002h-26.29999Z"/><path class="cls-1" d="m721.96997,259.36002c-22.5,0-35.12-9.26999-36.48999-25.23999-.46002-5.01999-.29999-10.79999-.29999-12.62h29.34003c0,1.37.15002,4.70999.46002,8.20999.29999,3.5,2.73999,5.17001,6.84003,5.17001,4.40997,0,6.39001-2.89001,6.39001-7.60001,0-6.54001-2.73999-9.88-11.71002-16.26999-1.83002-1.22-9.42999-6.84-13.08002-9.42999-11.56-8.20999-18.40002-15.36-18.40002-34.06,0-20.22,14.14001-32.54001,36.79999-32.54001s33.45001,12.62,35.42999,27.52c.60999,3.5.76001,10.19.76001,12.00999h-29.5c0-1.37-.15002-8.06-.29999-8.50999-.46002-3.34-2.28003-5.32001-6.39001-5.32001s-6.84003,2.13-6.84003,6.39c0,6.99001,4.56,10.03,12.15997,15.81,2.73999,1.98,10.95001,8.21001,13.08002,9.73,11.54999,8.67,18.54999,16.12001,18.54999,32.99001,0,21.44-12.77002,33.75-36.79999,33.75v.00998Z"/><path class="cls-1" d="m764.08002,257.69003v-121.33h64.62v28.13h-33.90997v18.85001h31.92999v26.61h-31.92999v20.22h34.21002v27.51999h-64.92004Z"/><path class="cls-1" d="m0,.08002v257.60998h192.14999V.08002H0Zm134.02,16.66c20.28,0,28.98,12.88,30.69,28.09.53,3.57.66,10.4.66,12.26h-25.55c0-1.4-.13-8.22-.25999-8.69-.39999-3.41-1.98-5.43-5.53-5.43s-5.92999,2.17-5.92999,6.52c0,7.14,3.95,10.24,10.53999,16.13999,2.37,2.02,9.48,8.38,11.33,9.92999,10.00999,8.84,16.06999,16.45,16.06999,33.67,0,21.88-11.06,34.45-31.87,34.45-19.49001,0-30.42999-9.47-31.61-25.75999-.39-5.12-.25999-11.02-.25999-12.88h25.42c0,1.39999.13,4.81.39,8.38s2.37,5.28,5.92999,5.28c3.82001,0,5.53-2.95,5.53-7.75999,0-6.67-2.37-10.09-10.14-16.60001-1.58-1.24001-8.17-6.98-11.33-9.62-10.00999-8.38-15.94-15.67-15.94-34.75999,0-20.64,12.25-33.21,31.87-33.21l-.00999-.00999Zm-108.39,1.4h26.61v90.77c0,5.42999,2.11,7.91,6.06,7.91s5.92999-2.64,5.92999-7.75999V18.13003h26.74001v90.93c0,22.34-12.64,34.29001-32.27,34.29001s-33.06-10.55-33.06-34.75999V18.13004l-.00999.00998Zm148.58,216.33001H17.95v-16.88998h156.25999v16.89001l.00002-.00003Zm0-29.56H17.95v-16.89h156.25999v16.89h.00002Zm0-29.56H17.95v-16.89h156.25999v16.89h.00002Z"/></svg>